<svg width="16" height="16" viewBox="0 0 16 16" fill="none" xmlns="http://www.w3.org/2000/svg">
    <g clip-path="url(#clip0)">
        <circle cx="8" cy="8" r="8" fill="#e6bcbc"></circle>
    </g>
    <g clip-path="url(#clip0)">
        <path d="M 13.17 6.84 L 13.31 6.87 Q 13.19 7.39 13.09 7.52 Q 12.45 7.32 11.66 7.32 L 11.65 7.32 A 5.157 5.157 0 0 1 11.08 8.245 Q 10.689 8.741 10.221 9.013 A 2.429 2.429 0 0 1 8.98 9.34 A 1.329 1.329 0 0 1 8.585 9.284 A 1.099 1.099 0 0 1 8.19 9.065 Q 7.87 8.79 7.87 8.405 Q 7.87 8.02 8.12 7.71 Q 8.37 7.4 8.78 7.2 Q 9.52 6.85 10.33 6.71 L 10.53 5.97 A 5.144 5.144 0 0 1 9.963 6.281 Q 9.362 6.56 8.86 6.56 A 1.247 1.247 0 0 1 8.541 6.522 A 0.903 0.903 0 0 1 8.125 6.285 A 0.834 0.834 0 0 1 7.935 5.978 Q 7.85 5.747 7.85 5.42 Q 7.85 4.95 7.97 4.48 A 147.398 147.398 0 0 0 7.998 4.369 Q 8.091 4.004 8.1 3.96 Q 7.41 3.75 6.885 3.235 A 1.731 1.731 0 0 1 6.362 2.028 A 2.302 2.302 0 0 1 6.36 1.93 Q 6.36 1.14 7.07 0.57 A 2.632 2.632 0 0 1 7.837 0.134 A 2.322 2.322 0 0 1 8.62 0 A 2.632 2.632 0 0 1 9.08 0.038 Q 9.579 0.126 9.86 0.425 Q 10.26 0.85 10.26 1.46 A 2.645 2.645 0 0 1 10.23 1.831 Q 10.147 2.409 9.835 3.345 Q 9.499 4.353 9.429 4.77 A 1.13 1.13 0 0 0 9.41 4.95 A 0.737 0.737 0 0 0 9.428 5.12 Q 9.482 5.35 9.704 5.391 A 0.577 0.577 0 0 0 9.81 5.4 A 0.985 0.985 0 0 0 10.105 5.351 Q 10.406 5.256 10.78 4.98 L 10.99 3.93 A 70.961 70.961 0 0 1 11.122 3.286 Q 11.325 2.315 11.454 1.873 A 2.972 2.972 0 0 1 11.53 1.64 Q 11.667 1.286 11.8 1.013 A 5.175 5.175 0 0 1 11.865 0.885 A 2.591 2.591 0 0 1 11.988 0.673 Q 12.052 0.575 12.118 0.497 A 1.219 1.219 0 0 1 12.21 0.4 A 1.511 1.511 0 0 1 12.611 0.121 A 1.28 1.28 0 0 1 13.16 0 A 1.665 1.665 0 0 1 13.474 0.028 Q 13.653 0.062 13.793 0.14 A 0.841 0.841 0 0 1 13.97 0.27 Q 14.25 0.54 14.25 1.105 Q 14.25 1.67 13.795 2.57 A 7.588 7.588 0 0 1 13.174 3.583 A 9.937 9.937 0 0 1 12.54 4.37 Q 12.325 5.578 11.991 6.505 A 8.985 8.985 0 0 1 11.91 6.72 L 12 6.72 Q 12.639 6.736 13.009 6.805 A 2.213 2.213 0 0 1 13.17 6.84 Z M 0.09 1.31 L 0.11 1.19 Q 0.52 1.2 0.78 1.31 Q 0.61 1.7 0.61 2.12 A 0.919 0.919 0 0 0 0.668 2.453 A 0.822 0.822 0 0 0 0.92 2.795 A 1.113 1.113 0 0 0 1.516 3.041 A 1.461 1.461 0 0 0 1.68 3.05 A 1.637 1.637 0 0 0 1.837 3.042 Q 1.919 3.034 2.012 3.019 A 3.955 3.955 0 0 0 2.21 2.98 A 4.532 4.532 0 0 1 1.973 2.512 Q 1.868 2.269 1.815 2.05 A 1.83 1.83 0 0 1 1.76 1.62 Q 1.76 0.903 2.318 0.474 A 1.789 1.789 0 0 1 2.37 0.435 Q 2.98 0 3.755 0 Q 4.301 0 4.673 0.176 A 1.314 1.314 0 0 1 4.955 0.355 A 1.233 1.233 0 0 1 5.238 0.685 A 1.083 1.083 0 0 1 5.38 1.235 A 1.385 1.385 0 0 1 5.123 2.035 A 1.85 1.85 0 0 1 4.99 2.205 A 3.544 3.544 0 0 1 4.253 2.848 A 3.298 3.298 0 0 1 4.12 2.93 A 5.983 5.983 0 0 1 4.715 3.843 A 4.581 4.581 0 0 1 5.09 4.8 Q 5.93 4.91 6.75 5.21 Q 6.61 5.71 6.49 5.93 A 2.027 2.027 0 0 0 6.304 5.803 Q 6.205 5.743 6.086 5.683 A 4.576 4.576 0 0 0 5.89 5.59 A 2.996 2.996 0 0 0 5.55 5.461 Q 5.37 5.405 5.202 5.383 A 1.814 1.814 0 0 0 5.18 5.38 L 5.18 5.39 A 1.794 1.794 0 0 1 4.621 6.705 A 2.355 2.355 0 0 1 4.575 6.75 A 2.297 2.297 0 0 1 4.075 7.114 A 1.732 1.732 0 0 1 3.255 7.32 A 2.418 2.418 0 0 1 2.841 7.287 Q 2.421 7.214 2.16 6.98 A 1.11 1.11 0 0 1 1.781 6.171 A 1.457 1.457 0 0 1 1.78 6.105 A 1.003 1.003 0 0 1 2.129 5.331 A 1.424 1.424 0 0 1 2.255 5.23 Q 2.73 4.89 3.37 4.75 Q 3.276 4.596 2.766 3.844 A 236.298 236.298 0 0 0 2.58 3.57 A 3.861 3.861 0 0 1 2.03 3.651 A 3.337 3.337 0 0 1 1.79 3.66 A 2.611 2.611 0 0 1 1.257 3.609 Q 0.93 3.541 0.68 3.382 A 1.466 1.466 0 0 1 0.475 3.225 A 1.433 1.433 0 0 1 0.026 2.374 A 2.057 2.057 0 0 1 0 2.04 A 2.735 2.735 0 0 1 0.017 1.743 Q 0.034 1.591 0.066 1.424 A 4.865 4.865 0 0 1 0.09 1.31 Z M 8.593 1.558 A 2.738 2.738 0 0 0 8.6 1.37 Q 8.6 0.7 8.09 0.7 Q 7.68 0.7 7.33 1.055 Q 6.98 1.41 6.98 1.92 A 1.109 1.109 0 0 0 7.063 2.355 A 1.044 1.044 0 0 0 7.36 2.75 Q 7.74 3.07 8.22 3.21 Q 8.549 2.196 8.593 1.558 Z M 12.69 3.32 L 12.71 3.31 A 3.46 3.46 0 0 0 13.119 2.722 A 4.628 4.628 0 0 0 13.38 2.165 Q 13.602 1.603 13.641 1.246 A 1.324 1.324 0 0 0 13.65 1.1 A 1.575 1.575 0 0 0 13.646 0.981 Q 13.632 0.793 13.568 0.741 A 0.088 0.088 0 0 0 13.51 0.72 Q 13.398 0.72 13.26 0.964 A 1.755 1.755 0 0 0 13.24 1 A 2.039 2.039 0 0 0 13.125 1.282 Q 12.952 1.795 12.766 2.864 A 33.028 33.028 0 0 0 12.69 3.32 Z M 3.73 2.39 Q 4.12 2.21 4.425 1.885 Q 4.611 1.687 4.684 1.501 A 0.632 0.632 0 0 0 4.73 1.27 A 0.594 0.594 0 0 0 4.698 1.072 A 0.495 0.495 0 0 0 4.505 0.825 Q 4.294 0.68 3.974 0.671 A 1.528 1.528 0 0 0 3.93 0.67 Q 3.635 0.67 3.428 0.777 A 0.771 0.771 0 0 0 3.355 0.82 A 0.556 0.556 0 0 0 3.222 0.941 A 0.443 0.443 0 0 0 3.13 1.22 A 0.706 0.706 0 0 0 3.161 1.424 A 0.916 0.916 0 0 0 3.21 1.55 Q 3.271 1.68 3.315 1.769 A 7.028 7.028 0 0 0 3.34 1.82 Q 3.39 1.92 3.46 2.02 A 10.442 10.442 0 0 0 3.493 2.068 Q 3.535 2.126 3.565 2.167 A 3.101 3.101 0 0 0 3.575 2.18 A 9.287 9.287 0 0 1 3.602 2.216 Q 3.648 2.278 3.73 2.39 Z M 8.61 8.29 A 0.236 0.236 0 0 0 8.637 8.406 Q 8.691 8.503 8.852 8.524 A 0.757 0.757 0 0 0 8.95 8.53 A 0.84 0.84 0 0 0 9.307 8.447 Q 9.471 8.371 9.635 8.225 A 1.94 1.94 0 0 0 9.997 7.791 A 2.591 2.591 0 0 0 10.19 7.41 Q 9.62 7.46 9.115 7.73 Q 8.751 7.925 8.649 8.13 A 0.358 0.358 0 0 0 8.61 8.29 Z M 3.015 6.58 A 0.533 0.533 0 0 0 3.351 6.46 A 0.831 0.831 0 0 0 3.485 6.325 A 1.022 1.022 0 0 0 3.618 6.115 A 0.754 0.754 0 0 0 3.69 5.795 A 2.113 2.113 0 0 0 3.682 5.601 Q 3.668 5.449 3.63 5.33 A 1.527 1.527 0 0 0 3.017 5.462 A 1.899 1.899 0 0 0 2.84 5.55 Q 2.628 5.67 2.531 5.813 A 0.451 0.451 0 0 0 2.45 6.07 A 0.49 0.49 0 0 0 2.595 6.425 A 0.598 0.598 0 0 0 2.6 6.43 A 0.495 0.495 0 0 0 2.839 6.561 Q 2.92 6.58 3.015 6.58" fill="black"/>
    </g>

    <defs>
        <clipPath id="clip0">
            <rect width="16" height="16" fill="white"/>
        </clipPath>
    </defs>
</svg>
